<?xml version="1.0" encoding="utf-8"?>
<!-- Generator: Adobe Illustrator 16.0.0, SVG Export Plug-In . SVG Version: 6.00 Build 0)  -->
<!DOCTYPE svg PUBLIC "-//W3C//DTD SVG 1.1//EN" "http://www.w3.org/Graphics/SVG/1.1/DTD/svg11.dtd">
<svg version="1.1" id="Layer_1" xmlns="http://www.w3.org/2000/svg" xmlns:xlink="http://www.w3.org/1999/xlink" x="0px" y="0px"
	 width="595.28px" height="841.89px" viewBox="0 0 595.28 841.89" enable-background="new 0 0 595.28 841.89" xml:space="preserve">
<g>
	<path fill-rule="evenodd" clip-rule="evenodd" d="M84.376,509.777c71.742,0,143.484,0,215.338,0
		c0.046-0.608,0.113-1.089,0.113-1.57c0.008-6.969,0.038-13.937-0.039-20.904c-0.009-0.824-0.412-1.848-0.986-2.43
		c-6.256-6.35-12.564-12.648-18.922-18.896c-0.585-0.575-1.604-0.991-2.425-0.999c-7.658-0.075-15.317-0.045-22.976-0.045
		c-0.687,0-1.374,0-2.221,0c0-3.128,0-6.158,0-9.463c5.521,0,11.048,0,17.003,0c-0.689-0.766-1.031-1.183-1.411-1.562
		c-11.904-11.889-23.8-23.786-35.754-35.625c-0.66-0.654-1.811-1.129-2.74-1.143c-6.967-0.094-13.936-0.051-20.904-0.051
		c-0.675,0-1.35,0-2.134,0c0-3.176,0-6.165,0-9.403c4.861,0,9.703,0,14.54,0c-9.686-9.743-19.249-19.362-28.669-28.838
		c2.465-2.441,4.628-4.583,6.826-6.759c8.212,8.26,16.727,16.824,25.243,25.39c0.185-0.109,0.371-0.218,0.556-0.327
		c0-4.46,0-8.919,0-13.497c3.252,0,6.285,0,9.538,0c0,1.99,0,3.916,0,5.843c0,5.336-0.033,10.672,0.036,16.007
		c0.01,0.79,0.28,1.796,0.808,2.326c13.464,13.524,26.979,26.998,40.487,40.479c0.132,0.132,0.296,0.229,0.727,0.556
		c0-6.343,0-12.474,0-18.714c3.258,0,6.244,0,9.446,0c0.037,0.674,0.105,1.332,0.105,1.99c0.007,8.287-0.012,16.574,0.034,24.86
		c0.004,0.745,0.191,1.702,0.669,2.199c4.179,4.338,8.443,8.594,13.056,13.251c0-42.433,0-84.353,0-126.429
		c1.254-0.061,2.282-0.11,3.493-0.169c0-3.331,0.035-6.578-0.038-9.822c-0.011-0.466-0.471-0.993-0.846-1.369
		c-7.36-7.377-14.722-14.753-22.146-22.064c-0.577-0.568-1.624-0.92-2.456-0.928c-7.658-0.069-15.317-0.041-22.976-0.041
		c-0.677,0-1.354,0-2.153,0c0-3.154,0-6.139,0-9.396c5.51,0,11.037,0,17.044,0c-0.675-0.786-0.99-1.204-1.356-1.57
		c-11.947-11.935-23.888-23.875-35.884-35.761c-0.621-0.615-1.709-1.057-2.586-1.067c-6.967-0.086-13.936-0.048-20.904-0.048
		c-0.686,0-1.371,0-2.193,0c0-3.16,0-6.202,0-9.415c4.861,0,9.667,0,14.479,0c-9.671-9.727-19.258-19.371-28.789-28.957
		c2.55-2.49,4.729-4.619,7.165-6.998c8.326,8.415,16.816,16.996,25.64,25.914c0-4.948,0-9.372,0-13.948c3.171,0,6.203,0,9.515,0
		c0,0.638,0,1.3,0,1.962c0,6.654-0.029,13.309,0.039,19.962c0.008,0.779,0.341,1.761,0.876,2.298
		c13.378,13.433,26.804,26.819,40.224,40.21c0.209,0.209,0.455,0.383,0.933,0.78c0-6.375,0-12.481,0-18.723c3.229,0,6.266,0,9.542,0
		c0,0.734,0,1.403,0,2.072c0,8.224-0.016,16.447,0.026,24.671c0.003,0.753,0.144,1.732,0.617,2.22
		c5.202,5.357,10.484,10.637,16.238,15.826c0-0.686,0-1.372,0-2.058c-0.012-21.532-0.029-43.064-0.031-64.597
		c-0.001-10.608,0.062-21.217-0.018-31.825c-0.008-1.039-0.563-2.315-1.293-3.068c-5.236-5.413-10.584-10.717-15.892-16.061
		c-0.432-0.435-0.831-0.9-1.255-1.363c2.438-2.369,4.768-4.63,7.231-7.023c3.572,3.528,7.252,7.163,11.136,10.998
		c0.047-0.73,0.11-1.251,0.11-1.772c-0.008-13.434-0.002-26.869-0.064-40.303c-0.007-1.417,0.237-2.034,1.831-1.916
		c2.051,0.154,4.134,0.15,6.185-0.017c1.745-0.142,2.228,0.385,2.216,2.158c-0.075,11.55-0.028,23.102-0.021,34.653
		c0,0.662,0,1.325,0,2.097c3.469-3.524,6.782-6.892,9.915-10.074c2.66,2.619,4.96,4.884,7.436,7.321
		c-0.221,0.243-0.646,0.749-1.11,1.217c-4.995,5.038-10.034,10.032-14.951,15.144c-0.721,0.749-1.218,2.047-1.226,3.095
		c-0.086,10.421-0.083,20.842-0.037,31.263c0.105,23.769,0.25,47.538,0.381,71.308c0.001,0.365,0.029,0.729,0.059,1.383
		c0.571-0.482,0.992-0.789,1.357-1.152c4.85-4.828,9.671-9.684,14.553-14.478c0.921-0.904,1.324-1.812,1.315-3.117
		c-0.056-8.161-0.028-16.322-0.028-24.483c0-0.675,0-1.351,0-2.135c3.235,0,6.272,0,9.501,0c0,6.229,0,12.337,0,18.819
		c0.773-0.719,1.272-1.156,1.74-1.623c13.02-12.993,26.024-26,39.075-38.961c0.985-0.978,1.335-1.95,1.324-3.301
		c-0.059-7.087-0.027-14.175-0.027-21.413c3.141,0,6.177,0,9.414,0c0,4.451,0,8.931,0,13.822c8.8-8.873,17.295-17.44,25.679-25.895
		c2.481,2.462,4.643,4.607,6.822,6.771c-9.47,9.523-19.054,19.161-29.013,29.175c5.341,0,10.186,0,15.122,0c0,3.289,0,6.331,0,9.534
		c-3.939,0-7.757,0-11.575,0c-3.892,0-7.785-0.049-11.676,0.042c-0.776,0.018-1.743,0.365-2.283,0.901
		c-12.122,12.025-24.198,24.098-36.277,36.166c-0.286,0.286-0.517,0.627-0.999,1.222c5.813,0,11.301,0,16.913,0
		c0,3.23,0,6.266,0,9.512c-0.757,0-1.429,0-2.101,0c-7.596,0-15.191,0.031-22.787-0.03c-1.308-0.011-2.203,0.398-3.109,1.312
		c-7.252,7.308-14.572,14.548-21.802,21.878c-0.652,0.662-1.095,1.794-1.146,2.735c-0.15,2.737-0.054,5.487-0.054,8.367
		c1.168,0,2.149,0,3.5,0c0,41.823,0,83.511,0,125.715c0.832-0.654,1.218-0.9,1.536-1.217c3.606-3.584,7.24-7.143,10.765-10.807
		c0.606-0.632,1.027-1.723,1.035-2.606c0.077-8.223,0.046-16.447,0.046-24.671c0-0.677,0-1.354,0-2.146c3.229,0,6.266,0,9.494,0
		c0,6.227,0,12.335,0,18.822c0.775-0.719,1.274-1.151,1.741-1.618c13.02-12.992,26.024-26,39.075-38.962
		c0.982-0.975,1.342-1.942,1.331-3.298c-0.06-7.088-0.028-14.177-0.028-21.418c3.135,0,6.171,0,9.408,0c0,4.443,0,8.923,0,13.787
		c8.783-8.856,17.278-17.422,25.669-25.882c2.488,2.484,4.643,4.634,6.802,6.79c-9.447,9.501-19.032,19.14-29.004,29.168
		c5.364,0,10.209,0,15.151,0c0,3.289,0,6.331,0,9.542c-3.433,0-6.747,0-10.062,0c-4.395,0-8.789-0.044-13.183,0.041
		c-0.776,0.015-1.745,0.36-2.285,0.896c-12.123,12.025-24.198,24.097-36.278,36.166c-0.287,0.287-0.521,0.628-1.006,1.221
		c5.81,0,11.297,0,16.912,0c0,3.23,0,6.267,0,9.52c-0.748,0-1.419,0-2.089,0c-7.659,0-15.318-0.039-22.976,0.052
		c-0.928,0.011-2.069,0.497-2.734,1.148c-6.013,5.883-11.966,11.827-17.857,17.83c-0.651,0.663-1.135,1.806-1.146,2.733
		c-0.091,7.593-0.052,15.187-0.052,23.081c72.995,0,145.921,0,218.848,0c0,65.148,0,130.297,0,195.468c-150.667,0-301.333,0-452,0
		C84.376,640.074,84.376,574.925,84.376,509.777z M312.332,570.802c0.177-0.092,0.354-0.183,0.53-0.273
		c3.303,3.336,6.649,6.63,9.869,10.044c0.644,0.682,1.118,1.819,1.129,2.753c0.091,7.343,0.051,14.688,0.05,22.032
		c0,0.664,0,1.328,0,1.957c1.734,0,3.199,0,4.891,0c0-6.883,0-13.601,0-20.41c0.344,0.135,0.482,0.148,0.56,0.225
		c6.538,6.511,13.087,13.011,19.573,19.572c0.489,0.496,0.737,1.433,0.747,2.169c0.068,4.896,0.04,9.792,0.043,14.688
		c0.001,1.554,0,3.106,0,4.724c1.687,0,3.146,0,4.872,0c0-5.278,0-10.417,0-15.557c0.171-0.078,0.342-0.157,0.513-0.236
		c4.11,4.192,8.222,8.384,12.256,12.497c1.22-1.11,2.311-2.104,3.803-3.463c-4.861-4.83-9.58-9.519-14.481-14.39
		c6.354,0,12.54,0,18.742,0c0-1.622,0-3.039,0-4.678c-0.77,0-1.443,0-2.118,0c-6.717,0.001-13.434,0.045-20.148-0.049
		c-0.941-0.014-2.104-0.466-2.771-1.116c-5.664-5.52-11.239-11.13-16.832-16.722c-0.309-0.31-0.537-0.698-0.995-1.304
		c1.001,0,1.621,0.001,2.242,0c5.586,0,11.173,0.027,16.759-0.043c0.55-0.007,1.481-0.537,1.563-0.955
		c0.219-1.13,0.074-2.331,0.074-3.709c-0.932,0-1.608,0-2.286,0c-7.218,0-14.438,0.048-21.654-0.054
		c-0.991-0.014-2.203-0.521-2.92-1.21c-4.3-4.13-8.53-8.336-12.665-12.63c-0.727-0.753-1.253-2.04-1.263-3.087
		c-0.096-9.478-0.054-18.956-0.061-28.435c-0.001-0.719-0.068-1.438-0.104-2.142c-2.597,0-4.948,0-7.39,0
		c-0.032,0.668-0.082,1.221-0.085,1.773c-0.052,9.475-0.062,18.95-0.197,28.425c-0.014,0.993-0.509,2.214-1.197,2.926
		c-4.188,4.33-8.461,8.58-12.8,12.759c-0.675,0.65-1.827,1.117-2.765,1.13c-7.091,0.093-14.185,0.05-21.278,0.051
		c-2.794,0-2.705,0.003-2.797,2.874c-0.05,1.528,0.47,1.917,1.929,1.897c5.585-0.072,11.173-0.031,16.759-0.025
		c0.577,0,1.153,0.048,1.911,0.081c-0.26,0.438-0.324,0.62-0.446,0.742c-5.862,5.854-11.709,11.725-17.63,17.52
		c-0.539,0.527-1.547,0.8-2.341,0.807c-6.778,0.062-13.558,0.033-20.337,0.04c-0.665,0-1.33,0.057-2.008,0.088
		c0,1.604,0,3.014,0,4.661c6.28,0,12.445,0,18.61,0c0.072,0.152,0.145,0.306,0.218,0.459c-4.746,4.688-9.491,9.377-14.032,13.863
		c1.121,1.313,2.08,2.438,3.355,3.932c4.274-4.405,8.356-8.614,12.762-13.156c0,5.578,0,10.735,0,15.963c1.693,0,3.149,0,4.783,0
		c0-0.825,0-1.504,0-2.182c0-5.712-0.046-11.425,0.048-17.135c0.015-0.882,0.456-1.969,1.071-2.595
		c6.075-6.173,12.228-12.27,18.363-18.384c0.376-0.375,0.789-0.714,1.526-1.377c0,7.283,0,14.142,0,21.095c1.693,0,3.15,0,4.795,0
		c0-0.821,0-1.497,0-2.173c0-7.407-0.041-14.814,0.05-22.22c0.011-0.935,0.49-2.073,1.136-2.753c2.98-3.141,6.093-6.154,9.169-9.204
		c0.273-0.271,0.621-0.469,1.256-0.938c0,12.702,0,25.023,0,37.408c2.633,0,5.045,0,7.645,0
		C312.332,595.084,312.332,582.943,312.332,570.802z"/>
	<path fill-rule="evenodd" clip-rule="evenodd" fill="#7A7A7A" d="M310.038,114.518c-0.093,5.964,2.874,10.862,5.559,15.795
		c4.957,9.11,2.375,17.06-3.88,24.316c-2.104,2.44-4.019,2.617-6.564,0.591c-6.47-5.149-10.235-13.25-6.708-22.657
		c1.564-4.17,4.014-8.034,6.299-11.896c1.347-2.276,3.159-4.276,4.763-6.4C309.684,114.351,309.861,114.434,310.038,114.518z"/>
	<path fill-rule="evenodd" clip-rule="evenodd" fill="#7A7A7A" d="M361.924,159.061c-4.581,4.731-5.289,10.708-6.732,16.371
		c-1.217,4.772-3.212,9.019-7.612,11.605c-3.866,2.272-8.001,3.839-12.612,3.703c-1.896-0.056-2.969-0.994-3.479-2.795
		c-1.818-6.41,0.482-16.603,7.535-21.336C345.015,162.586,355.924,159.32,361.924,159.061z"/>
	<path fill-rule="evenodd" clip-rule="evenodd" fill="#7A7A7A" d="M253.414,163.647c4.627,4.299,10.502,5.444,16.063,7.245
		c4.62,1.496,8.664,3.779,10.988,8.226c2.018,3.859,3.452,7.939,3.112,12.41c-0.196,2.579-0.82,3.377-3.34,3.766
		c-8.048,1.238-16.864-1.348-21.37-10.401c-2.683-5.389-4.256-11.085-4.954-17.044C253.749,166.447,253.581,165.047,253.414,163.647
		z"/>
	<path fill-rule="evenodd" clip-rule="evenodd" fill="#7A7A7A" d="M456.664,412.269c-0.77,0.624-1.78,1.504-2.852,2.303
		c-5.473,4.08-11.259,7.449-18.123,8.718c-6.867,1.271-14.73-3.515-17.784-8.356c-1.074-1.703-0.813-3.21,0.545-4.565
		c5.166-5.155,13.708-9.222,21.859-4.866c2.322,1.241,4.589,2.63,7.017,3.615C450.355,410.346,453.524,411.227,456.664,412.269z"/>
	<path fill-rule="evenodd" clip-rule="evenodd" fill="#7A7A7A" d="M159.715,412.108c5.746-0.314,10.241-3.334,14.93-5.8
		c4.235-2.227,8.584-3.553,13.367-2.032c3.625,1.153,6.946,2.9,9.701,5.542c2.179,2.089,2.305,3.497,0.403,5.9
		c-4.62,5.841-12.007,9.644-20.906,6.72c-5.252-1.725-9.911-4.495-14.304-7.769C161.813,413.855,160.777,412.964,159.715,412.108z"
		/>
	<path fill-rule="evenodd" clip-rule="evenodd" fill="#7A7A7A" d="M160.093,258.807c5.743-0.315,10.238-3.335,14.927-5.801
		c4.235-2.227,8.584-3.554,13.366-2.034c3.625,1.152,6.946,2.9,9.702,5.54c2.181,2.089,2.307,3.497,0.407,5.901
		c-4.618,5.84-12.007,9.646-20.905,6.723c-5.253-1.725-9.911-4.494-14.305-7.769C162.191,260.554,161.155,259.663,160.093,258.807z"
		/>
	<path fill-rule="evenodd" clip-rule="evenodd" fill="#7A7A7A" d="M457.052,258.981c-5.284,4.365-11.097,8.411-18.142,10.357
		c-2.883,0.796-5.796,1.199-8.733,0.445c-4.908-1.259-8.929-3.874-11.835-8.081c-1.119-1.62-0.955-3.173,0.421-4.569
		c5.04-5.112,13.674-9.304,21.841-4.979c2.327,1.232,4.592,2.624,7.019,3.613C450.655,257.002,453.825,257.899,457.052,258.981z"/>
	<path fill-rule="evenodd" clip-rule="evenodd" fill="#7A7A7A" d="M452.317,341.362c-0.399,6.773-1.454,12.792-3.901,18.484
		c-2.026,4.715-4.841,8.847-9.927,10.725c-3.361,1.24-6.818,2.107-10.479,1.446c-2.94-0.53-3.763-1.166-3.709-4.161
		c0.098-5.447,1.458-10.561,5.306-14.66c2.67-2.843,6.306-4.014,9.9-5.128C444.006,346.673,448.491,345.297,452.317,341.362z"/>
	<path fill-rule="evenodd" clip-rule="evenodd" fill="#7A7A7A" d="M164.428,341.48c4.624,4.868,10.707,5.752,16.232,7.819
		c4.933,1.846,8.579,5.004,10.019,10.142c0.833,2.973,1.252,6.09,1.555,9.172c0.192,1.959-1.125,3.059-3.083,3.312
		c-8.732,1.131-16.771-2.165-20.847-11.724c-2.334-5.473-3.379-11.25-3.964-17.129C164.304,342.706,164.377,342.327,164.428,341.48z
		"/>
	<path fill-rule="evenodd" clip-rule="evenodd" fill="#7A7A7A" d="M452.795,188.671c-0.407,2.879-0.688,5.783-1.247,8.632
		c-1.171,5.957-2.874,11.796-7.24,16.253c-4.636,4.732-10.512,6.028-16.954,4.963c-1.737-0.287-2.621-1.451-2.641-3.143
		c-0.068-6.095,1.354-11.705,5.906-16.068c2.698-2.586,6.261-3.601,9.731-4.683c4.321-1.347,8.618-2.722,11.896-6.122
		C452.43,188.56,452.612,188.616,452.795,188.671z"/>
	<path fill-rule="evenodd" clip-rule="evenodd" fill="#7A7A7A" d="M164.842,188.216c4.49,4.764,10.476,5.699,15.953,7.693
		c5.241,1.908,8.964,5.257,10.424,10.697c0.736,2.747,1.243,5.611,1.376,8.445c0.115,2.448-0.8,3.26-3.188,3.569
		c-8.496,1.101-16.484-2.026-20.622-11.486c-2.435-5.568-3.51-11.47-4.065-17.483C164.689,189.307,164.776,188.951,164.842,188.216z
		"/>
	<path fill-rule="evenodd" clip-rule="evenodd" fill="#7A7A7A" d="M336.066,232.216c3.475,4.537,6.173,8.845,8.104,13.633
		c1.446,3.586,2.531,7.271,2.258,11.146c-0.464,6.562-3.964,11.341-9.423,14.741c-1.855,1.155-3.091,0.9-4.866-1.266
		c-3.497-4.268-5.784-9.104-5.437-14.784c0.242-3.948,2.349-7.21,4.357-10.476C333.427,241.361,335.78,237.5,336.066,232.216z"/>
	<path fill-rule="evenodd" clip-rule="evenodd" fill="#7A7A7A" d="M281.321,232.713c0.32,6.242,4.209,10.883,7.04,15.988
		c2.59,4.67,3.144,9.428,1.095,14.431c-1.19,2.908-2.509,5.713-4.819,7.953c-1.423,1.38-2.855,1.572-4.56,0.551
		c-5.475-3.281-10.394-10.978-8.995-18.308c0.991-5.188,2.813-9.987,5.664-14.413c1.367-2.122,2.741-4.238,4.112-6.356
		C281.013,232.61,281.167,232.662,281.321,232.713z"/>
	<path fill-rule="evenodd" clip-rule="evenodd" fill="#7A7A7A" d="M280.945,386.019c0.32,6.242,4.211,10.883,7.042,15.989
		c2.589,4.671,3.142,9.429,1.092,14.432c-1.191,2.908-2.511,5.712-4.821,7.952c-1.424,1.382-2.857,1.567-4.561,0.546
		c-5.476-3.284-10.391-10.979-8.991-18.31c0.991-5.188,2.815-9.987,5.666-14.412c1.366-2.121,2.741-4.236,4.111-6.354
		C280.638,385.914,280.792,385.966,280.945,386.019z"/>
	<path fill-rule="evenodd" clip-rule="evenodd" fill="#7A7A7A" d="M336.17,385.919c1.7,2.603,3.558,5.118,5.062,7.828
		c2.415,4.347,4.146,8.949,4.818,13.952c0.937,6.974-4.363,14.81-9.608,17.452c-1.833,0.923-2.967,0.734-4.704-1.398
		c-3.485-4.278-5.773-9.114-5.41-14.795c0.253-3.945,2.361-7.206,4.371-10.47c2.369-3.849,4.713-7.713,4.964-12.431
		C335.832,386.011,336.001,385.965,336.17,385.919z"/>
	<path fill-rule="evenodd" clip-rule="evenodd" fill="#7A7A7A" d="M228.682,337.41c0.444,6.144,4.254,10.757,7.067,15.815
		c2.673,4.808,3.239,9.753,0.865,14.763c-1.216,2.566-2.67,5.099-4.449,7.297c-1.642,2.03-2.926,1.975-5.108,0.576
		c-5.679-3.641-10.181-11.242-8.475-18.885c1.063-4.765,2.772-9.227,5.412-13.333c1.373-2.136,2.741-4.274,4.111-6.412
		C228.297,337.291,228.49,337.35,228.682,337.41z"/>
	<path fill-rule="evenodd" clip-rule="evenodd" fill="#7A7A7A" d="M388.327,337.28c0.866,1.149,1.835,2.265,2.617,3.499
		c3.575,5.648,6.562,11.516,7.387,18.311c0.827,6.822-4.474,14.732-9.651,17.259c-1.934,0.944-3.62,0.242-5.255-1.996
		c-5.575-7.632-6.81-15.438-1.152-23.646c1.381-2.003,2.62-4.143,3.617-6.357C386.881,342.151,387.486,339.777,388.327,337.28z"/>
	<path fill-rule="evenodd" clip-rule="evenodd" fill="#7A7A7A" d="M388.367,183.53c1.202,1.595,2.17,2.709,2.951,3.942
		c3.576,5.647,6.563,11.515,7.389,18.31c0.829,6.821-4.467,14.73-9.646,17.262c-1.935,0.946-3.622,0.247-5.257-1.991
		c-5.573-7.631-6.78-15.414-1.16-23.649C385.396,193.37,387.914,189.156,388.367,183.53z"/>
	<path fill-rule="evenodd" clip-rule="evenodd" fill="#7A7A7A" d="M228.968,183.476c0.579,6.861,4.532,11.58,7.373,16.822
		c2.471,4.56,2.847,9.272,0.827,14.118c-1.184,2.84-2.384,5.673-4.739,7.786c-1.775,1.592-2.866,1.702-4.886,0.429
		c-5.716-3.604-10.279-11.271-8.584-19.016c1.353-6.181,4.069-11.672,7.639-16.81C227.259,185.851,227.944,184.912,228.968,183.476z
		"/>
	<path fill-rule="evenodd" clip-rule="evenodd" fill="#7A7A7A" d="M206.716,310.899c6.284-0.96,10.644-5.234,15.611-8.429
		c4.104-2.64,8.5-3.603,13.288-2.178c3.136,0.933,6.238,1.932,8.717,4.206c1.934,1.773,2.178,2.869,0.939,5.116
		c-3.321,6.025-10.305,10.932-18.215,9.861c-6.271-0.849-11.962-3.135-17.339-6.35c-0.857-0.512-1.706-1.037-2.545-1.578
		C207.031,311.457,206.961,311.256,206.716,310.899z"/>
	<path fill-rule="evenodd" clip-rule="evenodd" fill="#7A7A7A" d="M410.687,311.238c-1.2,0.767-2.3,1.555-3.475,2.206
		c-5.8,3.215-11.802,5.89-18.574,6.09c-7.675,0.227-12.875-3.801-16.612-10.072c-1.197-2.007-0.955-3.291,0.864-4.803
		c5.371-4.464,14.843-7.505,22.446-2.004c2.94,2.128,5.955,4.181,9.086,6.01C406.277,309.75,408.426,310.332,410.687,311.238z"/>
	<path fill-rule="evenodd" clip-rule="evenodd" fill="#7A7A7A" d="M206.358,464.593c6.162-1.299,10.565-5.317,15.287-8.657
		c7.657-5.416,17.094-2.433,22.458,2.032c1.816,1.512,1.981,2.744,0.868,4.813c-3.228,6.003-10.294,11.099-18.325,9.994
		c-6.269-0.863-11.958-3.149-17.332-6.367C208.323,465.814,207.344,465.199,206.358,464.593z"/>
	<path fill-rule="evenodd" clip-rule="evenodd" fill="#7A7A7A" d="M410.309,464.556c-1.34,0.858-2.538,1.745-3.838,2.438
		c-5.223,2.784-10.614,5.022-16.579,5.797c-7.922,1.028-14.913-3.91-18.196-9.909c-1.191-2.176-1.042-3.395,0.866-4.962
		c5.425-4.457,14.834-7.459,22.451-1.925c2.886,2.097,5.85,4.111,8.927,5.91C405.801,462.994,407.946,463.596,410.309,464.556z"/>
	<path fill-rule="evenodd" clip-rule="evenodd" fill="#FFFFFF" d="M312.332,570.802c0,12.141,0,24.282,0,36.551
		c-2.6,0-5.012,0-7.645,0c0-12.385,0-24.706,0-37.408c-0.635,0.47-0.982,0.667-1.256,0.938c-3.076,3.05-6.189,6.063-9.169,9.204
		c-0.646,0.68-1.125,1.818-1.136,2.753c-0.091,7.405-0.051,14.812-0.05,22.22c0,0.676,0,1.352,0,2.173c-1.645,0-3.102,0-4.795,0
		c0-6.953,0-13.812,0-21.095c-0.737,0.663-1.15,1.002-1.526,1.377c-6.135,6.114-12.288,12.211-18.363,18.384
		c-0.616,0.626-1.057,1.713-1.071,2.595c-0.095,5.71-0.048,11.423-0.048,17.135c0,0.678,0,1.356,0,2.182c-1.634,0-3.09,0-4.783,0
		c0-5.228,0-10.385,0-15.963c-4.406,4.542-8.488,8.751-12.762,13.156c-1.275-1.494-2.234-2.618-3.355-3.932
		c4.541-4.486,9.286-9.175,14.032-13.863c-0.073-0.153-0.146-0.307-0.218-0.459c-6.165,0-12.33,0-18.61,0c0-1.647,0-3.057,0-4.661
		c0.678-0.031,1.343-0.088,2.008-0.088c6.779-0.007,13.559,0.022,20.337-0.04c0.794-0.007,1.802-0.279,2.341-0.807
		c5.92-5.795,11.768-11.665,17.63-17.52c0.123-0.122,0.187-0.304,0.446-0.742c-0.757-0.033-1.334-0.081-1.911-0.081
		c-5.586-0.006-11.174-0.047-16.759,0.025c-1.459,0.02-1.979-0.369-1.929-1.897c0.093-2.871,0.003-2.874,2.797-2.874
		c7.093-0.001,14.187,0.042,21.278-0.051c0.938-0.013,2.09-0.479,2.765-1.13c4.339-4.179,8.613-8.429,12.8-12.759
		c0.688-0.712,1.184-1.933,1.197-2.926c0.135-9.475,0.146-18.95,0.197-28.425c0.003-0.553,0.053-1.105,0.085-1.773
		c2.441,0,4.793,0,7.39,0c0.035,0.703,0.103,1.423,0.104,2.142c0.007,9.479-0.035,18.957,0.061,28.435
		c0.01,1.047,0.536,2.334,1.263,3.087c4.135,4.294,8.365,8.5,12.665,12.63c0.717,0.688,1.929,1.196,2.92,1.21
		c7.217,0.102,14.437,0.054,21.654,0.054c0.678,0,1.354,0,2.286,0c0,1.378,0.145,2.579-0.074,3.709
		c-0.082,0.418-1.014,0.948-1.563,0.955c-5.586,0.07-11.173,0.043-16.759,0.043c-0.621,0.001-1.241,0-2.242,0
		c0.458,0.605,0.687,0.994,0.995,1.304c5.593,5.592,11.168,11.202,16.832,16.722c0.668,0.65,1.83,1.103,2.771,1.116
		c6.715,0.094,13.432,0.05,20.148,0.049c0.675,0,1.349,0,2.118,0c0,1.639,0,3.056,0,4.678c-6.202,0-12.388,0-18.742,0
		c4.901,4.871,9.62,9.56,14.481,14.39c-1.492,1.358-2.583,2.353-3.803,3.463c-4.034-4.113-8.146-8.305-12.256-12.497
		c-0.171,0.079-0.342,0.158-0.513,0.236c0,5.14,0,10.278,0,15.557c-1.726,0-3.186,0-4.872,0c0-1.617,0.001-3.17,0-4.724
		c-0.003-4.896,0.025-9.792-0.043-14.688c-0.01-0.736-0.258-1.673-0.747-2.169c-6.486-6.562-13.035-13.062-19.573-19.572
		c-0.077-0.076-0.216-0.09-0.56-0.225c0,6.81,0,13.527,0,20.41c-1.691,0-3.156,0-4.891,0c0-0.629,0-1.293,0-1.957
		c0.001-7.345,0.041-14.689-0.05-22.032c-0.011-0.934-0.485-2.071-1.129-2.753c-3.22-3.414-6.566-6.708-9.869-10.044
		C312.686,570.62,312.509,570.71,312.332,570.802z"/>
</g>
</svg>
